{"title":"The.Christmas.Hope.2009.BRRip.720p.XviD.Feel-Free ","uid":6062093,"size":1867829634,"categoryP":"video","categoryS":"hd___movies","magnet":"?xt=urn:btih:69d8211dd5cef990285afe089df9d0d1bcbd8b80&amp;dn=The.Christmas.Hope.2009.BRRip.720p.XviD.Feel-Free+&amp;tr=udp%3A%2F%2Ftracker.openbittorrent.com%3A80&amp;tr=udp%3A%2F%2Fopen.demonii.com%3A1337&amp;tr=udp%3A%2F%2Ftracker.coppersurfer.tk%3A6969&amp;tr=udp%3A%2F%2Fexodus.desync.com%3A6969","seeders":0,"leechers":1,"uploader":".BONE.","files":8,"time":1293173169,"description":"Genre:Drama\nLanguage:English\nIMDb:http://www.imdb.com/title/tt1384926/\nSource:1080p.BluRay.x264-aAF\n\n\nFormat : AVI\nFormat/Info : Audio Video Interleave\nFile size : 1.74 GiB\nDuration : 1h 29mn\nOverall bit rate : 2 781 Kbps\n\nVideo\nCodec ID/Hint : XviD\nDuration : 1h 29mn\nBit rate : 2 388 Kbps\nWidth : 1 280 pixels\nHeight : 720 pixels\nDisplay aspect ratio : 16:9\nFrame rate : 23.976 fps\nColor space : YUV\nChroma subsampling : 4:2:0\nBit depth : 8 bits\nScan type : Progressive\nBits/(Pixel*Frame) : 0.108\nStream size : 1.49 GiB (86%)\nWriting library : XviD 1.2.1 (UTC 2008-12-04)\n\nAudio\nID : 1\nFormat : AC-3\nFormat/Info : Audio Coding 3\nMode extension : CM (complete main)\nCodec ID : 2000\nDuration : 1h 28mn\nBit rate mode : Constant\nBit rate : 384 Kbps\nChannel(s) : 6 channels\nChannel positions : Front: L C R, Side: L R, LFE\nSampling rate : 48.0 KHz\nBit depth : 16 bits\nStream size : 244 MiB (14%)\nAlignment : Aligned on interleaves\nInterleave, duration : 32 ms (0.77 video frame)\n\n &lt;a href=&quot;\nhttp://www.imdb.com/video/screenplay/vi2188511001/&quot; rel=&quot;nofollow&quot; target=&quot;_NEW&quot;&gt;\nhttp://www.imdb.com/video/screenplay/vi2188511001/&lt;/a&gt;\n\n","torrent":{"xt":"urn:btih:69d8211dd5cef990285afe089df9d0d1bcbd8b80","amp;dn":"The.Christmas.Hope.2009.BRRip.720p.XviD.Feel-Free+","amp;tr":["udp%3A%2F%2Ftracker.openbittorrent.com%3A80","udp%3A%2F%2Fopen.demonii.com%3A1337","udp%3A%2F%2Ftracker.coppersurfer.tk%3A6969","udp%3A%2F%2Fexodus.desync.com%3A6969"],"infoHash":"69d8211dd5cef990285afe089df9d0d1bcbd8b80","infoHashBuffer":{"type":"Buffer","data":[105,216,33,29,213,206,249,144,40,90,254,8,157,249,208,209,188,189,139,128]},"announce":[],"urlList":[]}}